<svg xmlns="http://www.w3.org/2000/svg" viewBox="0 0 700 400" font-family="Arial, sans-serif">
<rect width="700" height="400" fill="white"/>
<text x="350.0" y="22" text-anchor="middle" font-size="14" font-weight="bold">Short-Read Performance: RastQC vs FastQC</text>
<line x1="80" y1="320.0" x2="580" y2="320.0" stroke="#e0e0e0" stroke-width="0.5"/>
<text x="72" y="324.0" text-anchor="end" font-size="11" fill="#555">0s</text>
<line x1="80" y1="264.0" x2="580" y2="264.0" stroke="#e0e0e0" stroke-width="0.5"/>
<text x="72" y="268.0" text-anchor="end" font-size="11" fill="#555">12s</text>
<line x1="80" y1="208.0" x2="580" y2="208.0" stroke="#e0e0e0" stroke-width="0.5"/>
<text x="72" y="212.0" text-anchor="end" font-size="11" fill="#555">24s</text>
<line x1="80" y1="152.0" x2="580" y2="152.0" stroke="#e0e0e0" stroke-width="0.5"/>
<text x="72" y="156.0" text-anchor="end" font-size="11" fill="#555">36s</text>
<line x1="80" y1="96.0" x2="580" y2="96.0" stroke="#e0e0e0" stroke-width="0.5"/>
<text x="72" y="100.0" text-anchor="end" font-size="11" fill="#555">48s</text>
<line x1="80" y1="40.0" x2="580" y2="40.0" stroke="#e0e0e0" stroke-width="0.5"/>
<text x="72" y="44.0" text-anchor="end" font-size="11" fill="#555">60s</text>
<rect x="93.0" y="228.44" width="35.0" height="91.56" fill="#2980b9" rx="2"/>
<rect x="132.0" y="78.5" width="35.0" height="241.5" fill="#e74c3c" rx="2"/>
<text x="110.5" y="224.44" text-anchor="middle" font-size="9" fill="#2980b9">19.6s</text>
<text x="149.5" y="74.5" text-anchor="middle" font-size="9" fill="#e74c3c">51.8s</text>
<text x="130.0" y="338" text-anchor="middle" font-size="10" fill="#333">DRR013000 1</text>
<text x="130.0" y="352" text-anchor="middle" font-size="9" fill="#888">2.6x</text>
<rect x="193.0" y="310.7133333333333" width="35.0" height="9.286666666666665" fill="#2980b9" rx="2"/>
<rect x="232.0" y="303.6666666666667" width="35.0" height="16.333333333333332" fill="#e74c3c" rx="2"/>
<text x="210.5" y="306.7133333333333" text-anchor="middle" font-size="9" fill="#2980b9">2.0s</text>
<text x="249.5" y="299.6666666666667" text-anchor="middle" font-size="9" fill="#e74c3c">3.5s</text>
<text x="230.0" y="338" text-anchor="middle" font-size="10" fill="#333">DRR609229 1</text>
<text x="230.0" y="352" text-anchor="middle" font-size="9" fill="#888">1.8x</text>
<rect x="293.0" y="310.48" width="35.0" height="9.520000000000001" fill="#2980b9" rx="2"/>
<rect x="332.0" y="303.62" width="35.0" height="16.38" fill="#e74c3c" rx="2"/>
<text x="310.5" y="306.48" text-anchor="middle" font-size="9" fill="#2980b9">2.0s</text>
<text x="349.5" y="299.62" text-anchor="middle" font-size="9" fill="#e74c3c">3.5s</text>
<text x="330.0" y="338" text-anchor="middle" font-size="10" fill="#333">DRR609229 2</text>
<text x="330.0" y="352" text-anchor="middle" font-size="9" fill="#888">1.7x</text>
<rect x="393.0" y="297.55333333333334" width="35.0" height="22.446666666666665" fill="#2980b9" rx="2"/>
<rect x="432.0" y="247.38666666666666" width="35.0" height="72.61333333333334" fill="#e74c3c" rx="2"/>
<text x="410.5" y="293.55333333333334" text-anchor="middle" font-size="9" fill="#2980b9">4.8s</text>
<text x="449.5" y="243.38666666666666" text-anchor="middle" font-size="9" fill="#e74c3c">15.6s</text>
<text x="430.0" y="338" text-anchor="middle" font-size="10" fill="#333">ERR5897746 1</text>
<text x="430.0" y="352" text-anchor="middle" font-size="9" fill="#888">3.2x</text>
<rect x="493.0" y="297.55333333333334" width="35.0" height="22.446666666666665" fill="#2980b9" rx="2"/>
<rect x="532.0" y="247.34" width="35.0" height="72.66" fill="#e74c3c" rx="2"/>
<text x="510.5" y="293.55333333333334" text-anchor="middle" font-size="9" fill="#2980b9">4.8s</text>
<text x="549.5" y="243.34" text-anchor="middle" font-size="9" fill="#e74c3c">15.6s</text>
<text x="530.0" y="338" text-anchor="middle" font-size="10" fill="#333">ERR5897746 2</text>
<text x="530.0" y="352" text-anchor="middle" font-size="9" fill="#888">3.2x</text>
<line x1="80" y1="40" x2="80" y2="320" stroke="#333" stroke-width="1.5"/>
<line x1="80" y1="320" x2="580" y2="320" stroke="#333" stroke-width="1.5"/>
<text x="18" y="180.0" text-anchor="middle" font-size="12" fill="#333" transform="rotate(-90 18 180.0)">Wall-Clock Time (seconds)</text>
<rect x="590" y="60" width="14" height="14" fill="#2980b9" rx="2"/>
<text x="610" y="72" font-size="11" fill="#333">RastQC</text>
<rect x="590" y="82" width="14" height="14" fill="#e74c3c" rx="2"/>
<text x="610" y="94" font-size="11" fill="#333">FastQC</text>
</svg>