<svg xmlns="http://www.w3.org/2000/svg" viewBox="0 0 500 400" font-family="Arial, sans-serif">
<rect width="500" height="400" fill="white"/>
<text x="250.0" y="22" text-anchor="middle" font-size="14" font-weight="bold">Long-Read Performance: RastQC vs FastQC</text>
<line x1="80" y1="320.0" x2="360" y2="320.0" stroke="#e0e0e0" stroke-width="0.5"/>
<text x="72" y="324.0" text-anchor="end" font-size="11" fill="#555">0s</text>
<line x1="80" y1="252.8" x2="360" y2="252.8" stroke="#e0e0e0" stroke-width="0.5"/>
<text x="72" y="256.8" text-anchor="end" font-size="11" fill="#555">6s</text>
<line x1="80" y1="185.6" x2="360" y2="185.6" stroke="#e0e0e0" stroke-width="0.5"/>
<text x="72" y="189.6" text-anchor="end" font-size="11" fill="#555">12s</text>
<line x1="80" y1="118.4" x2="360" y2="118.4" stroke="#e0e0e0" stroke-width="0.5"/>
<text x="72" y="122.4" text-anchor="end" font-size="11" fill="#555">18s</text>
<line x1="80" y1="51.19999999999999" x2="360" y2="51.19999999999999" stroke="#e0e0e0" stroke-width="0.5"/>
<text x="72" y="55.19999999999999" text-anchor="end" font-size="11" fill="#555">24s</text>
<rect x="95.5" y="285.056" width="35.0" height="34.944" fill="#2980b9" rx="2"/>
<rect x="132.5" y="156.928" width="35.0" height="163.072" fill="#e74c3c" rx="2"/>
<rect x="169.5" y="284.944" width="35.0" height="35.056000000000004" fill="#27ae60" rx="2"/>
<text x="113.0" y="281.056" text-anchor="middle" font-size="8" fill="#2980b9">3.1s</text>
<text x="150.0" y="152.928" text-anchor="middle" font-size="8" fill="#e74c3c">14.6s</text>
<text x="187.0" y="280.944" text-anchor="middle" font-size="8" fill="#27ae60">3.1s</text>
<text x="150.0" y="338" text-anchor="middle" font-size="11" fill="#333">ONT MinION</text>
<text x="150.0" y="352" text-anchor="middle" font-size="9" fill="#888">4.7x faster</text>
<rect x="235.5" y="289.536" width="35.0" height="30.464000000000002" fill="#2980b9" rx="2"/>
<rect x="272.5" y="123.21600000000001" width="35.0" height="196.784" fill="#e74c3c" rx="2"/>
<rect x="309.5" y="289.648" width="35.0" height="30.352" fill="#27ae60" rx="2"/>
<text x="253.0" y="285.536" text-anchor="middle" font-size="8" fill="#2980b9">2.7s</text>
<text x="290.0" y="119.21600000000001" text-anchor="middle" font-size="8" fill="#e74c3c">17.6s</text>
<text x="327.0" y="285.648" text-anchor="middle" font-size="8" fill="#27ae60">2.7s</text>
<text x="290.0" y="338" text-anchor="middle" font-size="11" fill="#333">PacBio Revio</text>
<text x="290.0" y="352" text-anchor="middle" font-size="9" fill="#888">6.5x faster</text>
<line x1="80" y1="40" x2="80" y2="320" stroke="#333" stroke-width="1.5"/>
<line x1="80" y1="320" x2="360" y2="320" stroke="#333" stroke-width="1.5"/>
<text x="18" y="180.0" text-anchor="middle" font-size="12" fill="#333" transform="rotate(-90 18 180.0)">Wall-Clock Time (seconds)</text>
<rect x="370" y="60" width="14" height="14" fill="#2980b9" rx="2"/>
<text x="390" y="72" font-size="10" fill="#333">RastQC</text>
<rect x="370" y="82" width="14" height="14" fill="#e74c3c" rx="2"/>
<text x="390" y="94" font-size="10" fill="#333">FastQC</text>
<rect x="370" y="104" width="14" height="14" fill="#27ae60" rx="2"/>
<text x="390" y="116" font-size="10" fill="#333">RastQC +LR</text>
</svg>